HIERARCHY
ROOT Hips
{
	OFFSET -395.192444 -564.882874 89.113342
	CHANNELS 6 Xposition Yposition Zposition Zrotation Yrotation Xrotation
	JOINT Spine
	{
		OFFSET 0.000000 2.080078 8.814247
		CHANNELS 6 Xposition Yposition Zposition Zrotation Yrotation Xrotation
		JOINT Spine1
		{
			OFFSET 0.000000 0.000000 8.844139
			CHANNELS 6 Xposition Yposition Zposition Zrotation Yrotation Xrotation
			JOINT Spine2
			{
				OFFSET 0.000000 0.000000 11.682266
				CHANNELS 6 Xposition Yposition Zposition Zrotation Yrotation Xrotation
				JOINT Spine3
				{
					OFFSET 0.000000 0.000000 11.746704
					CHANNELS 6 Xposition Yposition Zposition Zrotation Yrotation Xrotation
					JOINT Neck
					{
						OFFSET 0.000000 0.000000 17.658264
						CHANNELS 6 Xposition Yposition Zposition Zrotation Yrotation Xrotation
						JOINT Neck1
						{
							OFFSET 0.000000 0.000000 5.101517
							CHANNELS 6 Xposition Yposition Zposition Zrotation Yrotation Xrotation
							JOINT Head
							{
								OFFSET 0.000000 0.000000 5.101517
								CHANNELS 6 Xposition Yposition Zposition Zrotation Yrotation Xrotation
								JOINT HeadEnd
								{
									OFFSET 0.000000 0.000000 11.655090
									CHANNELS 6 Xposition Yposition Zposition Zrotation Yrotation Xrotation
									End Site
									{
										OFFSET 0.000000 0.000000 0.100006
									}
								}
							}
						}
					}
					JOINT RightShoulder
					{
						OFFSET -2.625397 0.000000 11.175217
						CHANNELS 6 Xposition Yposition Zposition Zrotation Yrotation Xrotation
						JOINT RightArm
						{
							OFFSET 0.000000 0.000000 10.434708
							CHANNELS 6 Xposition Yposition Zposition Zrotation Yrotation Xrotation
							JOINT RightForeArm
							{
								OFFSET 0.000000 0.000000 29.628418
								CHANNELS 6 Xposition Yposition Zposition Zrotation Yrotation Xrotation
								JOINT RightHand
								{
									OFFSET 0.000000 0.000000 22.857605
									CHANNELS 6 Xposition Yposition Zposition Zrotation Yrotation Xrotation
									JOINT RightHandThumb1
									{
										OFFSET -2.867310 -2.944275 3.959564
										CHANNELS 6 Xposition Yposition Zposition Zrotation Yrotation Xrotation
										JOINT RightHandThumb2
										{
											OFFSET 0.000000 0.000000 3.350403
											CHANNELS 6 Xposition Yposition Zposition Zrotation Yrotation Xrotation
											JOINT RightHandThumb3
											{
												OFFSET 0.000000 0.000000 3.756516
												CHANNELS 6 Xposition Yposition Zposition Zrotation Yrotation Xrotation
												JOINT RightHandThumb4
												{
													OFFSET 0.000000 0.000000 3.147339
													CHANNELS 6 Xposition Yposition Zposition Zrotation Yrotation Xrotation
													End Site
													{
														OFFSET 0.000000 0.000000 0.100006
													}
												}
											}
										}
									}
									JOINT RightHandIndex1
									{
										OFFSET -0.086761 -2.345276 10.030899
										CHANNELS 6 Xposition Yposition Zposition Zrotation Yrotation Xrotation
										JOINT RightHandIndex2
										{
											OFFSET 0.000000 0.000000 4.061096
											CHANNELS 6 Xposition Yposition Zposition Zrotation Yrotation Xrotation
											JOINT RightHandIndex3
											{
												OFFSET 0.000000 0.000000 3.248871
												CHANNELS 6 Xposition Yposition Zposition Zrotation Yrotation Xrotation
												JOINT RightHandIndex4
												{
													OFFSET 0.000000 0.000000 2.639709
													CHANNELS 6 Xposition Yposition Zposition Zrotation Yrotation Xrotation
													End Site
													{
														OFFSET 0.000000 0.000000 0.100006
													}
												}
											}
										}
									}
									JOINT RightHandMiddle1
									{
										OFFSET 0.104095 -0.006775 9.502945
										CHANNELS 6 Xposition Yposition Zposition Zrotation Yrotation Xrotation
										JOINT RightHandMiddle2
										{
											OFFSET 0.000000 0.000000 4.568726
											CHANNELS 6 Xposition Yposition Zposition Zrotation Yrotation Xrotation
											JOINT RightHandMiddle3
											{
												OFFSET 0.000000 0.000000 3.654984
												CHANNELS 6 Xposition Yposition Zposition Zrotation Yrotation Xrotation
												JOINT RightHandMiddle4
												{
													OFFSET 0.000000 0.000000 2.741241
													CHANNELS 6 Xposition Yposition Zposition Zrotation Yrotation Xrotation
													End Site
													{
														OFFSET 0.000000 0.000000 0.100006
													}
												}
											}
										}
									}
									JOINT RightHandRing1
									{
										OFFSET 0.086761 2.267456 8.921707
										CHANNELS 6 Xposition Yposition Zposition Zrotation Yrotation Xrotation
										JOINT RightHandRing2
										{
											OFFSET 0.000000 0.000000 4.061096
											CHANNELS 6 Xposition Yposition Zposition Zrotation Yrotation Xrotation
											JOINT RightHandRing3
											{
												OFFSET 0.000000 0.000000 3.654984
												CHANNELS 6 Xposition Yposition Zposition Zrotation Yrotation Xrotation
												JOINT RightHandRing4
												{
													OFFSET 0.000000 0.000000 2.741241
													CHANNELS 6 Xposition Yposition Zposition Zrotation Yrotation Xrotation
													End Site
													{
														OFFSET 0.000000 0.000000 0.100006
													}
												}
											}
										}
									}
									JOINT RightHandPinky1
									{
										OFFSET -0.173492 4.467224 7.976990
										CHANNELS 6 Xposition Yposition Zposition Zrotation Yrotation Xrotation
										JOINT RightHandPinky2
										{
											OFFSET 0.000000 0.000000 3.350403
											CHANNELS 6 Xposition Yposition Zposition Zrotation Yrotation Xrotation
											JOINT RightHandPinky3
											{
												OFFSET 0.000000 0.000000 2.842758
												CHANNELS 6 Xposition Yposition Zposition Zrotation Yrotation Xrotation
												JOINT RightHandPinky4
												{
													OFFSET 0.000000 0.000000 2.639709
													CHANNELS 6 Xposition Yposition Zposition Zrotation Yrotation Xrotation
													End Site
													{
														OFFSET 0.000000 0.000000 0.100006
													}
												}
											}
										}
									}
									JOINT RightForeArmEnd
									{
										OFFSET 0.000000 0.000000 0.000000
										CHANNELS 6 Xposition Yposition Zposition Zrotation Yrotation Xrotation
										End Site
										{
											OFFSET 0.000000 0.000000 0.100006
										}
									}
								}
								JOINT RightArmEnd
								{
									OFFSET 0.000000 0.000000 0.000000
									CHANNELS 6 Xposition Yposition Zposition Zrotation Yrotation Xrotation
									End Site
									{
										OFFSET 0.000000 0.000000 0.100006
									}
								}
							}
						}
					}
					JOINT LeftShoulder
					{
						OFFSET 2.625397 0.000000 11.175217
						CHANNELS 6 Xposition Yposition Zposition Zrotation Yrotation Xrotation
						JOINT LeftArm
						{
							OFFSET 0.000000 0.000000 10.813629
							CHANNELS 6 Xposition Yposition Zposition Zrotation Yrotation Xrotation
							JOINT LeftForeArm
							{
								OFFSET 0.000000 0.000000 28.724777
								CHANNELS 6 Xposition Yposition Zposition Zrotation Yrotation Xrotation
								JOINT LeftHand
								{
									OFFSET 0.644379 0.328857 25.716171
									CHANNELS 6 Xposition Yposition Zposition Zrotation Yrotation Xrotation
									JOINT LeftHandThumb1
									{
										OFFSET 2.867310 -2.944275 3.959564
										CHANNELS 6 Xposition Yposition Zposition Zrotation Yrotation Xrotation
										JOINT LeftHandThumb2
										{
											OFFSET 0.000000 0.000000 3.350403
											CHANNELS 6 Xposition Yposition Zposition Zrotation Yrotation Xrotation
											JOINT LeftHandThumb3
											{
												OFFSET 0.000000 0.000000 3.756516
												CHANNELS 6 Xposition Yposition Zposition Zrotation Yrotation Xrotation
												JOINT LeftHandThumb4
												{
													OFFSET 0.000000 0.000000 3.100006
													CHANNELS 6 Xposition Yposition Zposition Zrotation Yrotation Xrotation
													End Site
													{
														OFFSET 0.000000 0.000000 0.100006
													}
												}
											}
										}
									}
									JOINT LeftHandIndex1
									{
										OFFSET 0.086761 -2.345276 10.030899
										CHANNELS 6 Xposition Yposition Zposition Zrotation Yrotation Xrotation
										JOINT LeftHandIndex2
										{
											OFFSET 0.000000 0.000000 4.061096
											CHANNELS 6 Xposition Yposition Zposition Zrotation Yrotation Xrotation
											JOINT LeftHandIndex3
											{
												OFFSET 0.000000 0.000000 3.248871
												CHANNELS 6 Xposition Yposition Zposition Zrotation Yrotation Xrotation
												JOINT LeftHandIndex4
												{
													OFFSET 0.000000 0.000000 2.639709
													CHANNELS 6 Xposition Yposition Zposition Zrotation Yrotation Xrotation
													End Site
													{
														OFFSET 0.000000 0.000000 0.100006
													}
												}
											}
										}
									}
									JOINT LeftHandMiddle1
									{
										OFFSET -0.104095 -0.006775 9.502945
										CHANNELS 6 Xposition Yposition Zposition Zrotation Yrotation Xrotation
										JOINT LeftHandMiddle2
										{
											OFFSET 0.000000 0.000000 4.568726
											CHANNELS 6 Xposition Yposition Zposition Zrotation Yrotation Xrotation
											JOINT LeftHandMiddle3
											{
												OFFSET 0.000000 0.000000 3.654984
												CHANNELS 6 Xposition Yposition Zposition Zrotation Yrotation Xrotation
												JOINT LeftHandMiddle4
												{
													OFFSET 0.000000 0.000000 2.741241
													CHANNELS 6 Xposition Yposition Zposition Zrotation Yrotation Xrotation
													End Site
													{
														OFFSET 0.000000 0.000000 0.100006
													}
												}
											}
										}
									}
									JOINT LeftHandRing1
									{
										OFFSET -0.086761 2.267456 8.921707
										CHANNELS 6 Xposition Yposition Zposition Zrotation Yrotation Xrotation
										JOINT LeftHandRing2
										{
											OFFSET 0.000000 0.000000 4.061096
											CHANNELS 6 Xposition Yposition Zposition Zrotation Yrotation Xrotation
											JOINT LeftHandRing3
											{
												OFFSET 0.000000 0.000000 3.654984
												CHANNELS 6 Xposition Yposition Zposition Zrotation Yrotation Xrotation
												JOINT LeftHandRing4
												{
													OFFSET 0.000000 0.000000 2.741241
													CHANNELS 6 Xposition Yposition Zposition Zrotation Yrotation Xrotation
													End Site
													{
														OFFSET 0.000000 0.000000 0.100006
													}
												}
											}
										}
									}
									JOINT LeftHandPinky1
									{
										OFFSET 0.173492 4.467224 7.976990
										CHANNELS 6 Xposition Yposition Zposition Zrotation Yrotation Xrotation
										JOINT LeftHandPinky2
										{
											OFFSET 0.000000 0.000000 3.350403
											CHANNELS 6 Xposition Yposition Zposition Zrotation Yrotation Xrotation
											JOINT LeftHandPinky3
											{
												OFFSET 0.000000 0.000000 2.842758
												CHANNELS 6 Xposition Yposition Zposition Zrotation Yrotation Xrotation
												JOINT LeftHandPinky4
												{
													OFFSET 0.000000 0.000000 2.639709
													CHANNELS 6 Xposition Yposition Zposition Zrotation Yrotation Xrotation
													End Site
													{
														OFFSET 0.000000 0.000000 0.100006
													}
												}
											}
										}
									}
									JOINT LeftForeArmEnd
									{
										OFFSET 0.000000 0.000000 0.000000
										CHANNELS 6 Xposition Yposition Zposition Zrotation Yrotation Xrotation
										End Site
										{
											OFFSET 0.000000 0.000000 0.100006
										}
									}
								}
								JOINT LeftArmEnd
								{
									OFFSET 0.000000 0.000000 0.000000
									CHANNELS 6 Xposition Yposition Zposition Zrotation Yrotation Xrotation
									End Site
									{
										OFFSET 0.000000 0.000000 0.100006
									}
								}
							}
						}
					}
				}
			}
		}
	}
	JOINT RightUpLeg
	{
		OFFSET -11.289948 0.000000 0.000000
		CHANNELS 6 Xposition Yposition Zposition Zrotation Yrotation Xrotation
		JOINT RightLeg
		{
			OFFSET 0.000000 0.000000 -38.200329
			CHANNELS 6 Xposition Yposition Zposition Zrotation Yrotation Xrotation
			JOINT RightFoot
			{
				OFFSET 0.000000 0.000000 -39.900856
				CHANNELS 6 Xposition Yposition Zposition Zrotation Yrotation Xrotation
				JOINT RightToeBase
				{
					OFFSET 0.000000 -15.261658 0.000001
					CHANNELS 6 Xposition Yposition Zposition Zrotation Yrotation Xrotation
					JOINT RightToeBaseEnd
					{
						OFFSET 0.000000 -7.370728 0.000001
						CHANNELS 6 Xposition Yposition Zposition Zrotation Yrotation Xrotation
						End Site
						{
							OFFSET 0.000000 0.000000 0.100000
						}
					}
				}
				JOINT RightLegEnd
				{
					OFFSET 0.000000 0.000000 0.000000
					CHANNELS 6 Xposition Yposition Zposition Zrotation Yrotation Xrotation
					End Site
					{
						OFFSET 0.000000 0.000000 0.100000
					}
				}
			}
			JOINT RightUpLegEnd
			{
				OFFSET 0.000000 0.000000 0.000000
				CHANNELS 6 Xposition Yposition Zposition Zrotation Yrotation Xrotation
				End Site
				{
					OFFSET 0.000000 0.000000 0.099998
				}
			}
		}
	}
	JOINT LeftUpLeg
	{
		OFFSET 11.315674 0.000000 0.000000
		CHANNELS 6 Xposition Yposition Zposition Zrotation Yrotation Xrotation
		JOINT LeftLeg
		{
			OFFSET 0.000000 0.000000 -38.200329
			CHANNELS 6 Xposition Yposition Zposition Zrotation Yrotation Xrotation
			JOINT LeftFoot
			{
				OFFSET 0.000000 0.000000 -39.900856
				CHANNELS 6 Xposition Yposition Zposition Zrotation Yrotation Xrotation
				JOINT LeftToeBase
				{
					OFFSET 0.000000 -15.261658 0.000001
					CHANNELS 6 Xposition Yposition Zposition Zrotation Yrotation Xrotation
					JOINT LeftToeBaseEnd
					{
						OFFSET 0.000000 -7.539978 0.000001
						CHANNELS 6 Xposition Yposition Zposition Zrotation Yrotation Xrotation
						End Site
						{
							OFFSET 0.000000 0.000000 0.100000
						}
					}
				}
				JOINT LeftLegEnd
				{
					OFFSET 0.000000 0.000000 0.000000
					CHANNELS 6 Xposition Yposition Zposition Zrotation Yrotation Xrotation
					End Site
					{
						OFFSET 0.000000 0.000000 0.100000
					}
				}
			}
			JOINT LeftUpLegEnd
			{
				OFFSET 0.000000 0.000000 0.000000
				CHANNELS 6 Xposition Yposition Zposition Zrotation Yrotation Xrotation
				End Site
				{
					OFFSET 0.000000 0.000000 0.099998
				}
			}
		}
	}
}
MOTION
Frames: 2
Frame Time: 0.016667
8.906708 -28.120239 87.606323 -11.181640 -1.593739 -15.053908 -0.000024 2.080140 8.814240 -0.209631 -1.369412 9.857557 -0.000009 0.000006 8.844138 0.128682 0.431302 4.574579 0.000013 -0.000044 11.682245 1.547289 2.333103 9.598268 -0.000013 -0.000046 11.746697 0.500605 2.304365 6.066689 -0.000033 -0.000072 17.658276 2.968324 -2.791217 4.754845 0.000000 -0.000086 5.101545 3.160988 -0.363962 -3.260709 -0.000028 -0.000057 5.101556 -1.025363 2.125954 -14.057566 0.000000 -0.000062 11.655089 0.000000 -0.000000 0.000000 -2.625393 -0.000003 11.175173 15.315304 -86.280944 0.370857 -0.000023 -0.000019 10.434700 -54.559401 -42.478722 42.842775 -0.000027 -0.000069 29.628376 16.945993 0.442392 55.234114 -0.000038 -0.000034 22.857559 69.936745 -18.294190 -7.240882 -2.867290 -2.944336 3.959511 31.519817 -18.507033 49.649478 0.000034 -0.000031 3.350433 -15.431434 9.409863 -27.445882 -0.000008 -0.000065 3.756561 -10.228817 7.339059 -18.751939 0.000046 -0.000061 3.147366 0.000000 -0.000001 -0.000002 -0.086853 -2.345273 10.030869 -14.043105 -24.151457 8.946782 -0.000045 -0.000081 4.061119 0.097576 -17.744662 2.577625 -0.000028 -0.000069 3.248880 -0.402442 -17.744659 2.577631 0.000005 0.000007 2.639725 -0.000001 -0.000002 -0.000001 0.104061 -0.006779 9.502922 -8.157941 -23.002532 7.000837 -0.000049 -0.000082 4.568761 0.369196 -16.613289 0.895938 -0.000019 -0.000042 3.654987 -0.130819 -16.613286 0.895957 -0.000036 0.000000 2.741247 0.000000 0.000000 0.000001 0.086714 2.267452 8.921677 0.561549 -23.557934 4.772543 -0.000034 -0.000073 4.061135 -0.851211 -16.408288 -1.031993 -0.000046 -0.000071 3.655004 0.148783 -16.408230 -1.031965 -0.000003 0.000011 2.741243 -0.000002 0.000002 0.000001 -0.173569 4.467249 7.976995 10.008481 -22.306199 1.009294 -0.000050 -0.000079 3.350443 -1.607303 -14.991772 -2.983826 -0.000055 -0.000043 2.842787 0.392693 -14.991772 -2.983836 -0.000028 0.000007 2.639712 -0.000001 -0.000001 -0.000001 -0.000040 -0.000062 0.000008 0.000002 -0.000002 0.000002 -0.000034 -0.000062 0.000003 0.000000 0.000004 0.000004 2.625443 -0.000070 11.175221 -10.018043 85.025057 -0.207888 0.000053 -0.000038 10.813622 32.012492 68.559554 15.458967 0.000050 -0.000015 28.724722 -20.563456 0.521608 55.526200 0.644394 0.328861 25.716156 -53.954492 16.460279 -13.351072 2.867245 -2.944275 3.959503 -31.489173 19.590772 48.067764 -0.000023 -0.000031 3.350456 17.852783 -10.075346 -31.394982 0.000004 0.000000 3.756538 11.803469 -8.063912 -21.420616 -0.000018 0.000001 3.099993 0.000000 0.000000 0.000000 0.086733 -2.345325 10.030945 -3.570740 32.504594 -4.643965 -0.000025 0.000016 4.061119 -0.203316 23.112086 -3.438716 -0.000016 -0.000002 3.248920 -0.703323 23.112175 -3.438719 -0.000027 0.000017 2.639731 -0.000002 0.000000 -0.000000 -0.104118 -0.006830 9.502977 2.172568 31.952397 0.170036 -0.000037 -0.000014 4.568746 0.248651 22.665838 -1.254072 -0.000031 0.000008 3.655016 -0.251338 22.665855 -1.254073 -0.000001 -0.000020 2.741241 0.000002 -0.000001 0.000002 -0.086746 2.267382 8.921707 12.477962 34.318313 8.088669 0.000018 0.000029 4.061141 -0.644997 24.765038 1.616871 0.000029 0.000005 3.655015 0.354985 24.765050 1.616859 -0.000006 0.000004 2.741261 -0.000000 0.000001 0.000001 0.173485 4.467195 7.977028 22.606850 32.837664 15.468109 -0.000011 -0.000017 3.350437 -0.876066 24.701492 5.129729 -0.000044 0.000017 2.842766 1.123930 24.701478 5.129721 -0.000023 -0.000044 2.639729 -0.000002 -0.000001 -0.000001 -0.000014 -0.000062 -0.000012 0.000000 -0.000003 -0.000002 0.000015 0.000001 0.000016 0.000002 0.000001 -0.000002 -11.290007 0.000038 0.000008 1.309075 9.245987 11.059978 -0.000049 -0.000070 -38.200310 -1.432092 0.607183 22.971673 -0.000062 -0.000029 -39.900879 -10.099009 -8.087515 14.287562 -0.000065 -15.261692 -0.000009 1.982763 1.382387 -19.763769 -0.000040 -7.370756 0.000001 0.000004 0.000000 0.000001 -0.000035 -0.000126 -0.000002 0.000001 0.000001 0.000000 -0.000021 -0.000065 -0.000008 0.000001 -0.000000 -0.000002 11.315638 -0.000051 -0.000011 -6.225987 -3.008991 4.460211 -0.000034 0.000013 -38.200325 0.855220 -0.342581 21.828071 -0.000022 -0.000064 -39.900871 22.259460 6.261905 20.936951 -0.000037 -15.261666 0.000010 -1.513967 -1.741097 -18.510999 0.000005 -7.539917 -0.000000 -0.000000 0.000000 0.000001 -0.000002 -0.000062 -0.000001 0.000000 -0.000000 -0.000001 -0.000006 -0.000053 -0.000002 -0.000001 0.000000 0.000000 
8.203125 -27.484253 87.650574 -11.040835 -1.163958 -14.411755 -0.000012 2.080051 8.814251 -0.255002 -1.714057 9.857369 -0.000043 0.000019 8.844142 0.046323 0.277378 4.618760 -0.000039 -0.000073 11.682259 1.256966 1.958093 9.223256 0.000010 -0.000028 11.746715 0.427437 1.997909 6.030839 -0.000038 -0.000086 17.658293 3.005981 -2.385916 4.307220 -0.000028 0.000000 5.101539 3.117808 -0.169138 -3.407334 -0.000027 -0.000041 5.101553 -1.046183 2.419108 -13.706574 -0.000000 -0.000061 11.655135 0.000000 -0.000000 0.000000 -2.625427 -0.000054 11.175226 15.256418 -85.620977 0.327519 -0.000015 -0.000031 10.434700 -55.111864 -41.456806 42.059711 0.000019 -0.000061 29.628420 17.286155 0.632327 57.102608 -0.000053 -0.000031 22.857582 69.374088 -19.717479 -7.822447 -2.867283 -2.944351 3.959518 31.510880 -18.686341 49.385307 -0.000031 -0.000038 3.350433 -15.831363 9.532105 -28.101688 -0.000046 -0.000061 3.756577 -10.488590 7.464995 -19.194848 -0.000044 -0.000032 3.147344 -0.000003 0.000001 -0.000002 -0.086807 -2.345246 10.030884 -14.413407 -25.428593 8.672343 -0.000031 -0.000060 4.061119 0.055720 -18.605459 2.711780 -0.000050 -0.000057 3.248894 -0.444288 -18.605478 2.711810 -0.000025 0.000013 2.639717 -0.000002 0.000000 -0.000001 0.104092 -0.006742 9.502941 -8.441054 -24.188324 6.629598 -0.000042 -0.000045 4.568738 0.355316 -17.439676 0.943305 -0.000004 -0.000091 3.655025 -0.144706 -17.439560 0.943368 -0.000014 -0.000006 2.741261 0.000000 0.000000 -0.000000 0.086683 2.267475 8.921722 0.364929 -24.674094 4.196376 -0.000044 -0.000080 4.061111 -0.835306 -17.231449 -1.086952 -0.000023 -0.000032 3.654998 0.164701 -17.231353 -1.086955 -0.000037 0.000008 2.741258 -0.000001 -0.000000 0.000001 -0.173576 4.467213 7.976973 9.896494 -23.250321 0.224593 -0.000042 -0.000062 3.350441 -1.564982 -15.754176 -3.143459 -0.000020 -0.000077 2.842770 0.435021 -15.754195 -3.143469 0.000010 -0.000004 2.639701 -0.000000 0.000001 0.000001 -0.000028 -0.000064 0.000015 -0.000001 0.000001 0.000002 -0.000026 -0.000061 0.000002 0.000000 0.000001 0.000001 2.625401 -0.000054 11.175239 -10.134024 84.401986 -0.197020 0.000046 -0.000019 10.813663 34.945601 69.372066 16.799374 -0.000031 -0.000031 28.724743 -20.499991 0.418363 57.162847 0.644394 0.328850 25.716141 -54.452068 18.014786 -13.935402 2.867214 -2.944305 3.959534 -31.489371 19.773218 47.804952 0.000023 -0.000023 3.350464 18.261059 -10.170193 -32.056458 0.000000 0.000008 3.756531 12.069489 -8.177584 -21.867832 -0.000033 0.000009 3.100011 -0.000001 0.000000 -0.000000 0.086747 -2.345338 10.030930 -3.473307 33.002402 -5.492150 0.000004 -0.000010 4.061138 -0.232102 23.547241 -3.511382 0.000036 -0.000023 3.248930 -0.732102 23.547163 -3.511393 0.000002 -0.000005 2.639706 -0.000000 0.000001 -0.000001 -0.104082 -0.006865 9.502955 2.307718 32.589968 -0.354816 -0.000004 -0.000001 4.568788 0.237178 23.142691 -1.283541 -0.000004 -0.000026 3.655001 -0.262822 23.142788 -1.283557 -0.000006 0.000011 2.741249 -0.000001 0.000001 0.000000 -0.086731 2.267409 8.921734 12.797760 35.285775 7.895606 0.000009 0.000015 4.061116 -0.623545 25.442607 1.667430 -0.000013 0.000006 3.655012 0.376438 25.442649 1.667419 -0.000013 0.000004 2.741242 -0.000001 0.000000 0.000000 0.173447 4.467186 7.977013 23.158322 34.046546 15.490975 -0.000061 0.000004 3.350430 -0.793252 25.521034 5.324850 -0.000018 -0.000025 2.842815 1.206741 25.521060 5.324844 -0.000004 -0.000062 2.639738 0.000000 -0.000001 -0.000001 -0.000009 -0.000062 0.000021 0.000001 -0.000002 -0.000000 -0.000001 -0.000031 0.000025 0.000004 0.000000 -0.000002 -11.289964 -0.000053 0.000011 0.310830 8.443698 10.599824 -0.000070 -0.000090 -38.200340 -1.387800 0.558106 21.903607 -0.000043 -0.000033 -39.900867 -9.924469 -7.384740 14.227019 -0.000019 -15.261708 -0.000002 2.038368 1.342302 -19.303204 -0.000022 -7.370792 0.000001 0.000001 0.000000 0.000000 0.000008 -0.000070 -0.000001 0.000001 -0.000000 -0.000002 -0.000074 0.000009 0.000006 -0.000001 -0.000000 -0.000000 11.315653 0.000005 -0.000011 -5.965900 -4.236378 3.026630 -0.000037 -0.000100 -38.200356 0.887147 -0.368558 22.557664 0.000004 -0.000053 -39.900887 21.561355 6.369256 21.759289 -0.000024 -15.261730 0.000023 -1.514340 -1.750562 -18.670655 -0.000027 -7.540098 -0.000001 -0.000000 0.000000 -0.000001 -0.000002 -0.000002 -0.000002 0.000000 -0.000000 -0.000001 0.000001 -0.000007 -0.000014 0.000001 0.000001 -0.000000 
